<svg xmlns="http://www.w3.org/2000/svg" width="1200" height="760" viewBox="0 0 1200 760"><rect width="100%" height="100%" fill="#ffffff"/><style>text{font-family:-apple-system,BlinkMacSystemFont,"Segoe UI",sans-serif;}</style>
<text x="60.00" y="45.00" font-size="24" text-anchor="start" font-weight="700" fill="#0f172a">cascade controller benchmark</text>
<text x="70.00" y="73.00" font-size="16" text-anchor="start" font-weight="700" fill="#0f172a">Profit</text>
<rect x="70" y="95" width="500" height="250" fill="#f8fafc" stroke="#cbd5e1"/>
<line x1="70" y1="345" x2="570" y2="345" stroke="#475569"/>
<line x1="70" y1="95" x2="70" y2="345" stroke="#475569"/>
<line x1="70" y1="95.00" x2="570" y2="95.00" stroke="#94a3b8" stroke-dasharray="4 4"/>
<rect x="88.00" y="95.00" width="223.00" height="250.00" fill="#3b82f6"/>
<text x="199.50" y="369.00" font-size="11" text-anchor="middle" font-weight="400" fill="#0f172a">PID</text>
<text x="199.50" y="89.00" font-size="10" text-anchor="middle" font-weight="400" fill="#334155">-5072</text>
<rect x="329.00" y="95.00" width="223.00" height="235.06" fill="#14b8a6"/>
<text x="440.50" y="369.00" font-size="11" text-anchor="middle" font-weight="400" fill="#0f172a">MPC</text>
<text x="440.50" y="89.00" font-size="10" text-anchor="middle" font-weight="400" fill="#334155">-4769</text>
<text x="58.00" y="103.00" font-size="10" text-anchor="end" font-weight="400" fill="#64748b">0.00</text>
<text x="58.00" y="345.00" font-size="10" text-anchor="end" font-weight="400" fill="#64748b">-5072</text>
<text x="650.00" y="73.00" font-size="16" text-anchor="start" font-weight="700" fill="#0f172a">KPI</text>
<rect x="650" y="95" width="500" height="250" fill="#f8fafc" stroke="#cbd5e1"/>
<line x1="650" y1="345" x2="1150" y2="345" stroke="#475569"/>
<line x1="650" y1="95" x2="650" y2="345" stroke="#475569"/>
<line x1="650" y1="345.00" x2="1150" y2="345.00" stroke="#94a3b8" stroke-dasharray="4 4"/>
<rect x="668.00" y="95.00" width="223.00" height="250.00" fill="#3b82f6"/>
<text x="779.50" y="369.00" font-size="11" text-anchor="middle" font-weight="400" fill="#0f172a">PID</text>
<text x="779.50" y="89.00" font-size="10" text-anchor="middle" font-weight="400" fill="#334155">30.8</text>
<rect x="909.00" y="97.13" width="223.00" height="247.87" fill="#14b8a6"/>
<text x="1020.50" y="369.00" font-size="11" text-anchor="middle" font-weight="400" fill="#0f172a">MPC</text>
<text x="1020.50" y="91.13" font-size="10" text-anchor="middle" font-weight="400" fill="#334155">30.6</text>
<text x="638.00" y="103.00" font-size="10" text-anchor="end" font-weight="400" fill="#64748b">30.8</text>
<text x="638.00" y="345.00" font-size="10" text-anchor="end" font-weight="400" fill="#64748b">0.00</text>
<text x="70.00" y="408.00" font-size="16" text-anchor="start" font-weight="700" fill="#0f172a">Tracking error</text>
<rect x="70" y="430" width="500" height="250" fill="#f8fafc" stroke="#cbd5e1"/>
<line x1="70" y1="680" x2="570" y2="680" stroke="#475569"/>
<line x1="70" y1="430" x2="70" y2="680" stroke="#475569"/>
<line x1="70" y1="680.00" x2="570" y2="680.00" stroke="#94a3b8" stroke-dasharray="4 4"/>
<rect x="88.00" y="430.00" width="223.00" height="250.00" fill="#3b82f6"/>
<text x="199.50" y="704.00" font-size="11" text-anchor="middle" font-weight="400" fill="#0f172a">PID</text>
<text x="199.50" y="424.00" font-size="10" text-anchor="middle" font-weight="400" fill="#334155">206</text>
<rect x="329.00" y="430.90" width="223.00" height="249.10" fill="#14b8a6"/>
<text x="440.50" y="704.00" font-size="11" text-anchor="middle" font-weight="400" fill="#0f172a">MPC</text>
<text x="440.50" y="424.90" font-size="10" text-anchor="middle" font-weight="400" fill="#334155">206</text>
<text x="58.00" y="438.00" font-size="10" text-anchor="end" font-weight="400" fill="#64748b">206</text>
<text x="58.00" y="680.00" font-size="10" text-anchor="end" font-weight="400" fill="#64748b">0.00</text>
<text x="650.00" y="408.00" font-size="16" text-anchor="start" font-weight="700" fill="#0f172a">Constraint</text>
<rect x="650" y="430" width="500" height="250" fill="#f8fafc" stroke="#cbd5e1"/>
<line x1="650" y1="680" x2="1150" y2="680" stroke="#475569"/>
<line x1="650" y1="430" x2="650" y2="680" stroke="#475569"/>
<line x1="650" y1="680.00" x2="1150" y2="680.00" stroke="#94a3b8" stroke-dasharray="4 4"/>
<rect x="668.00" y="680.00" width="223.00" height="1.00" fill="#3b82f6"/>
<text x="779.50" y="704.00" font-size="11" text-anchor="middle" font-weight="400" fill="#0f172a">PID</text>
<text x="779.50" y="674.00" font-size="10" text-anchor="middle" font-weight="400" fill="#334155">0.00</text>
<rect x="909.00" y="680.00" width="223.00" height="1.00" fill="#14b8a6"/>
<text x="1020.50" y="704.00" font-size="11" text-anchor="middle" font-weight="400" fill="#0f172a">MPC</text>
<text x="1020.50" y="674.00" font-size="10" text-anchor="middle" font-weight="400" fill="#334155">0.00</text>
<text x="638.00" y="438.00" font-size="10" text-anchor="end" font-weight="400" fill="#64748b">1.00</text>
<text x="638.00" y="680.00" font-size="10" text-anchor="end" font-weight="400" fill="#64748b">0.00</text>
</svg>