<svg xmlns="http://www.w3.org/2000/svg" width="1200" height="760" viewBox="0 0 1200 760"><rect width="100%" height="100%" fill="#ffffff"/><style>text{font-family:-apple-system,BlinkMacSystemFont,"Segoe UI",sans-serif;}</style>
<text x="60.00" y="45.00" font-size="24" text-anchor="start" font-weight="700" fill="#0f172a">cstr controller benchmark</text>
<text x="70.00" y="73.00" font-size="16" text-anchor="start" font-weight="700" fill="#0f172a">Profit</text>
<rect x="70" y="95" width="500" height="250" fill="#f8fafc" stroke="#cbd5e1"/>
<line x1="70" y1="345" x2="570" y2="345" stroke="#475569"/>
<line x1="70" y1="95" x2="70" y2="345" stroke="#475569"/>
<line x1="70" y1="95.00" x2="570" y2="95.00" stroke="#94a3b8" stroke-dasharray="4 4"/>
<rect x="88.00" y="95.00" width="142.67" height="150.26" fill="#3b82f6"/>
<text x="159.33" y="369.00" font-size="11" text-anchor="middle" font-weight="400" fill="#0f172a">PID</text>
<text x="159.33" y="89.00" font-size="10" text-anchor="middle" font-weight="400" fill="#334155">-252</text>
<rect x="248.67" y="95.00" width="142.67" height="234.14" fill="#14b8a6"/>
<text x="320.00" y="369.00" font-size="11" text-anchor="middle" font-weight="400" fill="#0f172a">MPC</text>
<text x="320.00" y="89.00" font-size="10" text-anchor="middle" font-weight="400" fill="#334155">-392</text>
<rect x="409.33" y="95.00" width="142.67" height="250.00" fill="#f59e0b"/>
<text x="480.67" y="369.00" font-size="11" text-anchor="middle" font-weight="400" fill="#0f172a">FastGrid-CSTR-MPC</text>
<text x="480.67" y="89.00" font-size="10" text-anchor="middle" font-weight="400" fill="#334155">-418</text>
<text x="58.00" y="103.00" font-size="10" text-anchor="end" font-weight="400" fill="#64748b">0.00</text>
<text x="58.00" y="345.00" font-size="10" text-anchor="end" font-weight="400" fill="#64748b">-418</text>
<text x="650.00" y="73.00" font-size="16" text-anchor="start" font-weight="700" fill="#0f172a">KPI</text>
<rect x="650" y="95" width="500" height="250" fill="#f8fafc" stroke="#cbd5e1"/>
<line x1="650" y1="345" x2="1150" y2="345" stroke="#475569"/>
<line x1="650" y1="95" x2="650" y2="345" stroke="#475569"/>
<line x1="650" y1="345.00" x2="1150" y2="345.00" stroke="#94a3b8" stroke-dasharray="4 4"/>
<rect x="668.00" y="126.11" width="142.67" height="218.89" fill="#3b82f6"/>
<text x="739.33" y="369.00" font-size="11" text-anchor="middle" font-weight="400" fill="#0f172a">PID</text>
<text x="739.33" y="120.11" font-size="10" text-anchor="middle" font-weight="400" fill="#334155">83.4</text>
<rect x="828.67" y="103.15" width="142.67" height="241.85" fill="#14b8a6"/>
<text x="900.00" y="369.00" font-size="11" text-anchor="middle" font-weight="400" fill="#0f172a">MPC</text>
<text x="900.00" y="97.15" font-size="10" text-anchor="middle" font-weight="400" fill="#334155">92.1</text>
<rect x="989.33" y="95.00" width="142.67" height="250.00" fill="#f59e0b"/>
<text x="1060.67" y="369.00" font-size="11" text-anchor="middle" font-weight="400" fill="#0f172a">FastGrid-CSTR-MPC</text>
<text x="1060.67" y="89.00" font-size="10" text-anchor="middle" font-weight="400" fill="#334155">95.2</text>
<text x="638.00" y="103.00" font-size="10" text-anchor="end" font-weight="400" fill="#64748b">95.2</text>
<text x="638.00" y="345.00" font-size="10" text-anchor="end" font-weight="400" fill="#64748b">0.00</text>
<text x="70.00" y="408.00" font-size="16" text-anchor="start" font-weight="700" fill="#0f172a">Tracking error</text>
<rect x="70" y="430" width="500" height="250" fill="#f8fafc" stroke="#cbd5e1"/>
<line x1="70" y1="680" x2="570" y2="680" stroke="#475569"/>
<line x1="70" y1="430" x2="70" y2="680" stroke="#475569"/>
<line x1="70" y1="680.00" x2="570" y2="680.00" stroke="#94a3b8" stroke-dasharray="4 4"/>
<rect x="88.00" y="430.00" width="142.67" height="250.00" fill="#3b82f6"/>
<text x="159.33" y="704.00" font-size="11" text-anchor="middle" font-weight="400" fill="#0f172a">PID</text>
<text x="159.33" y="424.00" font-size="10" text-anchor="middle" font-weight="400" fill="#334155">20.0</text>
<rect x="248.67" y="561.31" width="142.67" height="118.69" fill="#14b8a6"/>
<text x="320.00" y="704.00" font-size="11" text-anchor="middle" font-weight="400" fill="#0f172a">MPC</text>
<text x="320.00" y="555.31" font-size="10" text-anchor="middle" font-weight="400" fill="#334155">9.48</text>
<rect x="409.33" y="607.95" width="142.67" height="72.05" fill="#f59e0b"/>
<text x="480.67" y="704.00" font-size="11" text-anchor="middle" font-weight="400" fill="#0f172a">FastGrid-CSTR-MPC</text>
<text x="480.67" y="601.95" font-size="10" text-anchor="middle" font-weight="400" fill="#334155">5.76</text>
<text x="58.00" y="438.00" font-size="10" text-anchor="end" font-weight="400" fill="#64748b">20.0</text>
<text x="58.00" y="680.00" font-size="10" text-anchor="end" font-weight="400" fill="#64748b">0.00</text>
<text x="650.00" y="408.00" font-size="16" text-anchor="start" font-weight="700" fill="#0f172a">Constraint</text>
<rect x="650" y="430" width="500" height="250" fill="#f8fafc" stroke="#cbd5e1"/>
<line x1="650" y1="680" x2="1150" y2="680" stroke="#475569"/>
<line x1="650" y1="430" x2="650" y2="680" stroke="#475569"/>
<line x1="650" y1="680.00" x2="1150" y2="680.00" stroke="#94a3b8" stroke-dasharray="4 4"/>
<rect x="668.00" y="680.00" width="142.67" height="1.00" fill="#3b82f6"/>
<text x="739.33" y="704.00" font-size="11" text-anchor="middle" font-weight="400" fill="#0f172a">PID</text>
<text x="739.33" y="674.00" font-size="10" text-anchor="middle" font-weight="400" fill="#334155">0.00</text>
<rect x="828.67" y="680.00" width="142.67" height="1.00" fill="#14b8a6"/>
<text x="900.00" y="704.00" font-size="11" text-anchor="middle" font-weight="400" fill="#0f172a">MPC</text>
<text x="900.00" y="674.00" font-size="10" text-anchor="middle" font-weight="400" fill="#334155">0.00</text>
<rect x="989.33" y="680.00" width="142.67" height="1.00" fill="#f59e0b"/>
<text x="1060.67" y="704.00" font-size="11" text-anchor="middle" font-weight="400" fill="#0f172a">FastGrid-CSTR-MPC</text>
<text x="1060.67" y="674.00" font-size="10" text-anchor="middle" font-weight="400" fill="#334155">0.00</text>
<text x="638.00" y="438.00" font-size="10" text-anchor="end" font-weight="400" fill="#64748b">1.00</text>
<text x="638.00" y="680.00" font-size="10" text-anchor="end" font-weight="400" fill="#64748b">0.00</text>
</svg>